<?xml version="1.0" encoding="UTF-8"?>
<svg width="99px" height="163px" viewBox="0 0 99 163" version="1.1" xmlns="http://www.w3.org/2000/svg" xmlns:xlink="http://www.w3.org/1999/xlink">
    <!-- Generator: Sketch 64 (93537) - https://sketch.com -->
    <title>Group 2</title>
    <desc>Created with Sketch.</desc>
    <g id="Page-1" stroke="none" stroke-width="1" fill="none" fill-rule="evenodd">
        <g id="iPhone-11-Pro-Copy" transform="translate(-138.000000, -1335.000000)">
            <g id="Group-2" transform="translate(140.000000, 1337.000000)">
                <path d="M12.6036145,111.140964 C12.9861545,106.708549 14.5368829,103.315107 17.2557996,100.960639 C21.3341747,97.4289365 33.1796849,93.9270612 35.6921429,91.6606759 C38.2046009,89.3942906 38.4972782,88.5549404 38.4972782,80.9718938 C36.627188,79.2496957 35.1673742,76.1748746 34.117837,71.7474305 C32.7137935,71.4951439 31.7874479,70.4036624 31.3388002,68.4729861 C30.6658287,65.5769716 31.0633666,63.8567931 32.5906018,62.7643795 C30.921533,58.150206 30.5042658,53.1670789 31.3388002,47.814998 C32.5906018,39.7868768 40.9799092,37.046988 47.4085581,37.046988 C51.1465637,37.046988 53.7576682,38.1583541 55.2418718,40.3810864 C57.4207957,40.4559646 59.2638552,41.2260291 60.7710504,42.6912801 C63.0318431,44.8891566 65.9750946,50.8974312 61.6450543,62.7643795 C63.1226223,63.3755221 63.6290044,65.025483 63.1642004,67.714262 C62.6993965,70.403041 61.683936,71.7474305 60.1178191,71.7474305 C59.2824635,75.8498847 57.8226498,78.9247058 55.7383778,80.9718938 C55.139774,86.5060435 56.0748191,90.0689709 58.5435132,91.6606759 C62.2465544,94.0482334 72.4231511,97.1702805 76.9363478,100.960639 C79.9451456,103.487544 81.5104799,106.880986 81.6323507,111.140964" id="Path" stroke="#00334B" stroke-width="3.05542169" stroke-linecap="round" stroke-linejoin="round"></path>
                <rect id="Rectangle" stroke="#00334B" stroke-width="3.05542169" opacity="0.200000003" stroke-linecap="round" stroke-linejoin="round" x="2.4158453e-13" y="0" width="94.7180723" height="158.5"></rect>
                <rect id="Rectangle" fill="#00334B" x="38.1927711" y="134.056627" width="18.3325301" height="18.3325301" rx="9.16626506"></rect>
                <rect id="Rectangle-Copy-6" stroke="#00334B" stroke-width="0.763855422" stroke-linecap="round" stroke-linejoin="round" transform="translate(47.359036, 12.221687) scale(-1, 1) translate(-47.359036, -12.221687) " x="44.3036145" y="9.16626506" width="6.11084337" height="6.11084337" rx="3.05542169"></rect>
                <line x1="3.05542169" y1="127.945783" x2="91.6626506" y2="127.945783" id="Line-Copy" stroke="#00334B" stroke-width="3.05542169" opacity="0.200000003" stroke-linecap="square" stroke-linejoin="round"></line>
                <line x1="3.05542169" y1="24.4433735" x2="91.6626506" y2="24.4433735" id="Line" stroke="#00334B" stroke-width="3.05542169" opacity="0.200000003" stroke-linecap="square" stroke-linejoin="round"></line>
            </g>
        </g>
    </g>
</svg>