<?xml version="1.0" encoding="UTF-8"?>
<svg width="19px" height="20px" viewBox="0 0 19 20" version="1.1" xmlns="http://www.w3.org/2000/svg" xmlns:xlink="http://www.w3.org/1999/xlink">
    <!-- Generator: Sketch 64 (93537) - https://sketch.com -->
    <title></title>
    <desc>Created with Sketch.</desc>
    <g id="Page-1" stroke="none" stroke-width="1" fill="none" fill-rule="evenodd">
        <g id="Artboard-Copy-15" transform="translate(-860.000000, -2161.000000)" fill="#00404D" fill-rule="nonzero">
            <g id="Group-9-Copy" transform="translate(732.000000, 2139.000000)">
                <g id="Group-8" transform="translate(38.000000, 17.000000)">
                    <g id="Group-9">
                        <path d="M98.9449728,25 C99.3838315,25 99.8097826,24.8202824 100.119565,24.5250321 L108.522418,16.1681643 C108.832201,15.860077 109,15.436457 109,15 C109,14.563543 108.832201,14.139923 108.522418,13.8446727 L100.119565,5.48780488 C99.8097826,5.17971759 99.3838315,5 98.9449728,5 C98.5061141,5 98.0930707,5.17971759 97.783288,5.48780488 L96.8152174,6.45057766 C96.5054348,6.74582798 96.3247283,7.16944801 96.3247283,7.60590501 C96.3247283,8.042362 96.5054348,8.46598203 96.8152174,8.76123235 L100.597147,12.5353017 L91.5101902,12.5353017 C90.5808424,12.5353017 90,13.3055199 90,14.1784339 L90,15.8215661 C90,16.6944801 90.5808424,17.4646983 91.5101902,17.4646983 L100.597147,17.4646983 L96.8152174,21.2259307 C96.5054348,21.534018 96.3247283,21.957638 96.3247283,22.394095 C96.3247283,22.830552 96.5054348,23.254172 96.8152174,23.5622593 L97.783288,24.5250321 C98.0930707,24.8202824 98.5061141,25 98.9449728,25 Z" id=""></path>
                    </g>
                </g>
            </g>
        </g>
    </g>
</svg>