<?xml version="1.0" encoding="UTF-8"?>
<svg width="24px" height="24px" viewBox="0 0 24 24" version="1.1" xmlns="http://www.w3.org/2000/svg" xmlns:xlink="http://www.w3.org/1999/xlink">
    <!-- Generator: Sketch 64 (93537) - https://sketch.com -->
    <title></title>
    <desc>Created with Sketch.</desc>
    <g id="Page-1" stroke="none" stroke-width="1" fill="none" fill-rule="evenodd">
        <g id="Artboard-Copy-11" transform="translate(-754.000000, -2179.000000)" fill="#00404D" fill-rule="nonzero">
            <g id="Group-12" transform="translate(522.000000, 2159.000000)">
                <g id="Group-9" transform="translate(210.000000, 0.000000)">
                    <g id="Group-8" transform="translate(22.000000, 17.000000)">
                        <path d="M14.2232312,18.4955542 C15.3616255,18.4955542 16.3259123,18.0401965 17.1428776,17.2768027 C18.8169867,15.7366223 22.3259195,9.18750738 23.3705636,7.20536216 C23.6919925,6.57589712 23.9732429,5.89286059 23.9732429,5.18303832 C23.9732429,3.91071537 22.8482415,3 21.6294901,3 C20.9732393,3 20.3571671,3.29464321 19.8884166,3.72321515 L11.3437635,11.4776887 C10.553584,12.2009038 10.1116192,13.2455479 10.1116192,14.3169778 C10.1116192,16.5669805 11.9598357,18.4955542 14.2232312,18.4955542 Z M6.50893633,27.0000286 C10.339298,27.0000286 12.9910869,24.3750255 12.9107297,20.5580566 L12.8973368,19.6071627 C11.4241208,19.2187693 10.1517978,18.200911 9.45536841,16.8482308 C6.44197197,16.9821595 4.66071984,17.5178744 3.52232563,20.4910923 C3.40178977,20.7991284 3.12053943,20.9866286 2.78571761,20.9866286 C2.22321694,20.9866286 0.495536305,19.6071627 0,19.2723408 C0,23.3839529 1.96875235,27.0000286 6.50893633,27.0000286 Z" id=""></path>
                    </g>
                </g>
            </g>
        </g>
    </g>
</svg>