<?xml version="1.0" encoding="UTF-8"?>
<svg width="26px" height="23px" viewBox="0 0 26 23" version="1.1" xmlns="http://www.w3.org/2000/svg" xmlns:xlink="http://www.w3.org/1999/xlink">
    <!-- Generator: Sketch 64 (93537) - https://sketch.com -->
    <title></title>
    <desc>Created with Sketch.</desc>
    <g id="Page-1" stroke="none" stroke-width="1" fill="none" fill-rule="evenodd">
        <g id="Artboard-Copy-14" transform="translate(-659.000000, -2180.000000)" fill="#00404D" fill-rule="nonzero">
            <g id="Group-9" transform="translate(627.000000, 2159.000000)">
                <g id="Group-8" transform="translate(32.000000, 17.000000)">
                    <path d="M22.2857409,26.2857409 C24.174136,26.2857409 25.7143164,24.7455604 25.7143164,22.8571653 L25.7143164,10.857151 C25.7143164,8.96875592 24.174136,7.42857552 22.2857409,7.42857552 L19.2857373,7.42857552 L18.6027007,5.60714477 C18.2678789,4.72321515 17.2232348,4 16.2857337,4 L9.42858267,4 C8.49108155,4 7.44643745,4.72321515 7.11161562,5.60714477 L6.42857909,7.42857552 L3.42857552,7.42857552 C1.54018041,7.42857552 0,8.96875592 0,10.857151 L0,22.8571653 C0,24.7455604 1.54018041,26.2857409 3.42857552,26.2857409 L22.2857409,26.2857409 Z M12.857151,22.8571653 C9.54911853,22.8571653 6.85715103,20.1651978 6.85715103,16.857151 C6.85715103,13.5491185 9.54911853,10.857151 12.857151,10.857151 C16.1651978,10.857151 18.8571653,13.5491185 18.8571653,16.857151 C18.8571653,20.1651978 16.1651978,22.8571653 12.857151,22.8571653 Z M12.8571582,20.7143056 C14.986625,20.7143056 16.7143056,18.986625 16.7143056,16.8571582 C16.7143056,14.7276914 14.986625,13.0000107 12.8571582,13.0000107 C10.7276914,13.0000107 9.00001073,14.7276914 9.00001073,16.8571582 C9.00001073,18.986625 10.7276914,20.7143056 12.8571582,20.7143056 Z" id=""></path>
                </g>
            </g>
        </g>
    </g>
</svg>