<?xml version="1.0" encoding="UTF-8"?>
<svg width="16px" height="16px" viewBox="0 0 16 16" version="1.1" xmlns="http://www.w3.org/2000/svg" xmlns:xlink="http://www.w3.org/1999/xlink">
    <title></title>
    <g id="Page-1" stroke="none" stroke-width="1" fill="none" fill-rule="evenodd">
        <g id="5" transform="translate(-399.000000, -2007.000000)" fill="#00404D" fill-rule="nonzero">
            <g id="Group-5" transform="translate(383.000000, 1951.000000)">
                <g id="Group-11" transform="translate(0.000000, 40.000000)">
                    <g id="Group-9">
                        <path d="M25.2109155,31.6562461 C28.9158933,31.0743688 31.7499624,27.8681386 31.7499624,24.0000143 C31.7499624,19.7187745 28.2812207,16.2500328 23.9999809,16.2500328 C19.7187411,16.2500328 16.2499994,19.7187745 16.2499994,24.0000143 C16.2499994,27.8681386 19.0840686,31.0743688 22.7890463,31.6562461 L22.7890463,26.2403349 L20.820301,26.2403349 L20.820301,24.0000143 L22.7890463,24.0000143 L22.7890463,22.2925294 C22.7890463,20.3503343 23.9452936,19.2775219 25.7162244,19.2775219 C26.5643364,19.2775219 27.4512361,19.4287667 27.4512361,19.4287667 L27.4512361,21.3350121 L26.4737299,21.3350121 C25.5112383,21.3350121 25.2109155,21.9325144 25.2109155,22.5453364 L25.2109155,24.0000143 L27.360294,24.0000143 L27.0165448,26.2403349 L25.2109155,26.2403349 L25.2109155,31.6562461 Z" id=""></path>
                    </g>
                </g>
            </g>
        </g>
    </g>
</svg>