<?xml version="1.0" encoding="UTF-8"?>
<svg width="14px" height="14px" viewBox="0 0 14 14" version="1.1" xmlns="http://www.w3.org/2000/svg" xmlns:xlink="http://www.w3.org/1999/xlink">
    <title></title>
    <g id="Page-1" stroke="none" stroke-width="1" fill="none" fill-rule="evenodd">
        <g id="5" transform="translate(-656.000000, -2008.000000)" fill="#00404D" fill-rule="nonzero">
            <g id="Group-5" transform="translate(383.000000, 1951.000000)">
                <g id="Group-11" transform="translate(0.000000, 40.000000)">
                    <g id="Group-9-Copy-2" transform="translate(257.000000, 0.000000)">
                        <path d="M25.8906014,30.9500099 C27.012486,30.896879 28.0062275,30.6406235 28.8249816,29.8187565 C29.6437053,29.0000024 29.8999608,28.0062609 29.9562045,26.8843763 C30.0218477,25.7281291 30.0218477,22.2656434 29.9562045,21.1093962 C29.9031041,19.9875117 29.6468486,18.9937701 28.8249816,18.175016 C28.0062275,17.3562924 27.012486,17.1000369 25.8906014,17.0437931 C24.7343542,16.9781499 21.2687252,16.9781499 20.112478,17.0437931 C18.9937368,17.0968936 17.9999952,17.353149 17.1781283,18.1719032 C16.3562614,18.9906574 16.1031187,19.9843989 16.0468749,21.1062834 C15.9812623,22.2625307 15.9812623,25.7281291 16.0468749,26.8843763 C16.1000059,28.0062609 16.3562614,29.0000024 17.1781283,29.8187565 C17.9999952,30.6375107 18.990624,30.8937357 20.112478,30.9500099 C21.2687252,31.0156226 24.7343542,31.0156226 25.8906014,30.9500099 Z M23.0030961,29.7374884 C21.9843607,29.7374884 19.7937532,29.8187565 18.8749931,29.4562391 C18.2625068,29.2124958 17.7906146,28.7406341 17.5437585,28.1250045 C17.1781283,27.2031317 17.2625092,25.0156369 17.2625092,23.9969015 C17.2625092,22.9781356 17.1812411,20.7875281 17.5437585,19.8687681 C17.7875018,19.2562817 18.2593635,18.7843895 18.8749931,18.5375334 C19.7968659,18.1719032 21.9843607,18.2562841 23.0030961,18.2562841 C24.021862,18.2562841 26.2124695,18.175016 27.1312296,18.5375334 C27.7437159,18.7812767 28.2156081,19.2531384 28.4624642,19.8687681 C28.8280944,20.7906409 28.7437135,22.9781356 28.7437135,23.9969015 C28.7437135,25.0156369 28.8280944,27.2062445 28.4624642,28.1250045 C28.2187209,28.7374908 27.7468592,29.209383 27.1312296,29.4562391 C26.2093568,29.8218693 24.021862,29.7374884 23.0030961,29.7374884 Z M26.7406055,21.096884 C27.2030983,21.096884 27.5780974,20.7250282 27.5780974,20.2593921 C27.5780974,19.7968993 27.2030983,19.4219002 26.7406055,19.4219002 C26.2781127,19.4219002 25.9031136,19.7968993 25.9031136,20.2593921 C25.9031136,20.7218849 26.2749694,21.096884 26.7406055,21.096884 Z M23.0030961,27.5874996 C24.9906097,27.5874996 26.5937247,25.9843846 26.5937247,23.9969015 C26.5937247,22.0093879 24.9906097,20.4062729 23.0030961,20.4062729 C21.015613,20.4062729 19.412498,22.0093879 19.412498,23.9969015 C19.412498,25.9843846 21.015613,27.5874996 23.0030961,27.5874996 Z M23.0030961,26.3312465 C21.7187364,26.3312465 20.6687511,25.284374 20.6687511,23.9969015 C20.6687511,22.7093985 21.7156236,21.662526 23.0030961,21.662526 C24.2905991,21.662526 25.3374716,22.7093985 25.3374716,23.9969015 C25.3374716,25.284374 24.2874863,26.3312465 23.0030961,26.3312465 Z" id=""></path>
                    </g>
                </g>
            </g>
        </g>
    </g>
</svg>