<?xml version="1.0" encoding="UTF-8"?>
<svg width="16px" height="14px" viewBox="0 0 16 14" version="1.1" xmlns="http://www.w3.org/2000/svg" xmlns:xlink="http://www.w3.org/1999/xlink">
    <title></title>
    <g id="Page-1" stroke="none" stroke-width="1" fill="none" fill-rule="evenodd">
        <g id="5" transform="translate(-892.000000, -2008.000000)" fill="#00404D" fill-rule="nonzero">
            <g id="Group-5" transform="translate(383.000000, 1951.000000)">
                <g id="Group-11" transform="translate(0.000000, 40.000000)">
                    <g id="Group-9-Copy-3" transform="translate(493.000000, 0.000000)">
                        <path d="M21.0355105,30.4974659 C27.0659831,30.4974659 30.3654443,25.5025437 30.3654443,21.1675626 C30.3654443,21.0254425 30.3654443,20.8832615 30.3552819,20.7411415 C30.9948678,20.2741321 31.5532771,19.6954591 31.9999008,19.0457414 C31.4110961,19.299525 30.7715102,19.4822944 30.1115997,19.5533391 C30.7917738,19.1472732 31.3095338,18.5076873 31.5532161,17.746245 C30.9237315,18.121885 30.2131009,18.3959932 29.4720138,18.5381133 C28.8729857,17.8985274 28.020235,17.5025933 27.0760539,17.5025933 C25.258828,17.5025933 23.7968869,18.9746662 23.7968869,20.7817603 C23.7968869,21.0355744 23.8273434,21.2893579 23.878094,21.5330097 C21.1573363,21.3908591 18.73092,20.0913933 17.1167271,18.1015604 C16.832426,18.5888639 16.6700423,19.1472427 16.6700423,19.7563721 C16.6700423,20.8934238 17.2486848,21.8984873 18.1319224,22.4873226 C17.5938988,22.467059 17.0862401,22.3147766 16.6497177,22.0711249 L16.6497177,22.1117131 C16.6497177,23.7056119 17.7766376,25.025372 19.279167,25.3299672 C19.0050893,25.4010119 18.7106564,25.4416307 18.416254,25.4416307 C18.2030282,25.4416307 18,25.4213366 17.7969318,25.3908801 C18.2131905,26.6903765 19.4213175,27.6345271 20.862934,27.6650141 C19.736014,28.5482518 18.3248236,29.0660117 16.7918682,29.0660117 C16.51776,29.0660117 16.2639764,29.0558494 16,29.0254235 C17.4517788,29.9593812 19.1776352,30.4974659 21.0355105,30.4974659 Z" id=""></path>
                    </g>
                </g>
            </g>
        </g>
    </g>
</svg>